<?xml version="1.0" encoding="UTF-8"?>
<svg id="Layer_1" data-name="Layer 1" xmlns="http://www.w3.org/2000/svg" viewBox="0 0 1448 1080">
  <defs>
    <style>
      .cls-1 {
        fill: #444878;
      }

      .cls-2 {
        fill: #525ee3;
      }

      .cls-3 {
        fill: #7791dd;
      }

      .cls-4 {
        fill: #3c438a;
      }

      .cls-5 {
        fill: #4f76dd;
      }

      .cls-6 {
        fill: #8595e1;
      }

      .cls-7 {
        fill: #4c4ca1;
      }

      .cls-8 {
        fill: #5a7be6;
      }

      .cls-9 {
        fill: #4463ad;
      }

      .cls-10 {
        fill: #484493;
      }

      .cls-11 {
        fill: #675f95;
      }

      .cls-12 {
        fill: #434894;
      }

      .cls-13 {
        fill: #3e52a0;
      }

      .cls-14 {
        fill: #4252a3;
      }

      .cls-15 {
        fill: #3c4783;
      }

      .cls-16 {
        fill: #434776;
      }

      .cls-17 {
        fill: #485084;
      }

      .cls-18 {
        fill: #615c90;
      }

      .cls-19 {
        fill: #2c4685;
      }

      .cls-20 {
        fill: #364987;
      }

      .cls-21 {
        fill: #695f93;
      }

      .cls-22 {
        fill: #374689;
      }

      .cls-23 {
        fill: #4e5184;
      }

      .cls-24 {
        fill: #47468a;
      }

      .cls-25 {
        fill: #3c3864;
      }

      .cls-26 {
        fill: #6f629a;
      }

      .cls-27 {
        fill: #414b96;
      }

      .cls-28 {
        fill: #4263af;
      }

      .cls-29 {
        fill: #5a588f;
      }

      .cls-30 {
        fill: #504c78;
      }

      .cls-31 {
        fill: #484d7b;
      }

      .cls-32 {
        fill: #5a5997;
      }

      .cls-33 {
        fill: #4c4580;
      }

      .cls-34 {
        fill: #6f669d;
      }

      .cls-35 {
        fill: #4c4b95;
      }
    </style>
  </defs>
  <path class="cls-25" d="M5.18,408.5c.96,8.49,2.5,16.96,4.65,25.41l-1.95,2.54-7.85.04v-41.12c1.06.22,1.9.93,2.28,2.36l2.87,10.77Z"/>
  <path class="cls-32" d="M47.39,439.89c-3.16,3.18-7.23.79-10.93-1.02-1.98-.97-4.91-.3-6.11-1.83.89-6.05,1.1-12.02,1.64-18.94l4.98,18.56,3.29-34.7c3.64,12.92,4.8,25.38,7.13,37.92Z"/>
  <path class="cls-20" d="M28.08,432.62c-.06,1.1.08,2.14-.36,3.82-3.77.52-7.81.18-10.83-.68l4.94-33.1,6.25,29.96Z"/>
  <path class="cls-29" d="M13.45,435.37c-1.61,1.21-3.53,1.08-5.58,1.07-1.28-5.99-2.02-10.33-2.73-16.75-.42-3.76-2.61-7.77.03-11.2l8.28,26.87Z"/>
  <g>
    <path class="cls-8" d="M30.34,437.04l2.12-1.42c4.67,1.36,9.65,2.78,14.92,4.26,1.91,1.35,4.18,2.37,6.94,3,6.68,1.52,11.91,5.14,17.28,8.3.4-.5.79-.89,1.18-.88,2.63.04,22.47,11.28,25.09,13.51l.29,2.98c3.88,2.77,8.34,4.87,13.38,6.32l.18,1.52c.31.16.61.19.83.27l18.48,6.97c-.38.29-.61.66-.69.92l-18.99-6.66c-.15-.07-.36-.3-.45-.6-.41.45-.83.81-1.26.83-5.18.25,1.48-.87,2.28-.72,1.83.33,18.09,6.67,18.79,7.4.95.99,1.33,2.32,1.49,3.65,12.06,3.2,12.08,11.43-1.51,8.65l-4.33-.07c-1.48,3.09-4.23,2.8-5.08-.5-2.62-.44-2.45-2.74.14-3.22,2.1-.11,2.06-.88-.13-2.29-.65,3.23-1.56,2.62-3.43.7l-2.44.27c-.45,4.99-6.98,3.03-8.81-.07-2.61-3.04-2.84,5.56.14,2.32,1.88.04,3.85.05,5.92.02,3.14.28,4.73,1.58,4.79,3.9,1.87.98,2.34,3.21,1.41,6.69,2.22-.37,4.84.02,7.85,1.16l.89-2.59c3.12-1.62,5.53-1.52,7.24.3,13.5,3.96,27.02,8.08,40.55,12.35l.4,1.33c.85.76,1.61,2.06,1,2.69-1.19,1.21-1.39-1.43.41-2.85.52-1.96,9.85,1.74,9.37,1.62-9.48-2.43-18.98-5-28.46-7.61l-.55-1.09c-1.87-1.1-2.34-1.95-.03-2.33l4.6-1.18c5.42,3.42,7.53,4,6.35,1.74-2.11-.76-2.09-1.7.18-2.08l2.08-1.81,9.3,3.49c2.76-3.38,7.49-8.5,12.22-8.44,2.89.04,14.51,2.79,13.75,6.59,4.33-.35,6.42,1.88,6.33,6.27,4.89,2.62,8.11,6.21,3.99,10.67-1.36,3.92-1.11,5.66.75,5.2,1.94-1.42,3.93-1,5.96,1.28-.24-2.05.28-3.16,2.53-3.68.97-6.73,10.02-11.59,9.95-1.47l1.22,1.1c1.84.92,2.43,3.29,1.77,7.11l1.86,2.06c.12-1.02.58-2.46,1.29-2.41,5.94.42,13.28,3.5,18.07,6.88,2.52-.09,3.31.68,2.37,2.31l-.74,1.38c-16.73-.74-33.29-2.65-49.69-5.71-.23-1.35-2.11-1.12-5.65.69-24.18,2.05-48,5.69-71.46,10.91l-1.42,2.4c-5.4.87-23.59-.27-28.96-1.64-.34-.09-.57-.61-.78-1.25.4.43-.35.55-2.23.36-.18.78-.43,1.44-.9,1.74-3.02,1.87-24.38-6.17-28.54-8.39-4.96-.71-7.88-2.49-8.76-5.34-1.17-.1-2.31-.27-3.37-.67-17.83-6.7-35.3-13.2-53.72-18.44L.03,511.7v-75.21c-.54-3.65,7.28-3.54,7.85-.04,1.07-3.11,3.43-3.32,5.58-1.07.82.34,2.55.14,3.44.39,1.58-1.87,4.28-2.37,8.1-1.52l3.09-1.62c.31,1.5,1.22,3.1,2.26,4.42Z"/>
    <g>
      <path class="cls-17" d="M262.1,539.7l14.55,3.5-15.11-.66c-15.3-.67-30.11-.39-45.61.7-21.29,1.51-41.71,2.63-63.02,2.63-6.46,0-12.42,1.18-18.35,1.09l16.09-4.77c19.11-5.11,37.97-8.63,57.88-8.55,1.89-6.04-.67-11.47,2.27-12.25,3.59-.96.76,5.07,2.27,12.4l49.04,5.9Z"/>
      <path class="cls-2" d="M50.47,463.83c-1.97-.47-6.21,3.73-8.38.73-2.36-3.26-3.2-8.3-8.05-9.84.75,4.43,3.76,7.81,4.09,11.8l.61,7.44c.11,1.38-1.04,2.17-1.72,2.16-.57,0-5.49-13.79-5.52-14.03l-1.77-18.48c1.17-.81,3.35-.58,3.67.11.51,1.09-.1,3.03-.13,4.76l6.45,5.2c.89-2.16,3.26-6.56,6.49-6,.91,1.16,1.03,5.39,3.17,5.44.38-.53.44-2.32.12-2.71-.74-.89,1.62-2.64,2.36-1.36,2.17,3.72,4.15,14.4,2.2,16.72-.51.61-2.04-1.56-3.59-1.93Z"/>
      <path class="cls-11" d="M118.57,532.93c-1.88-.86.58-5.36-3.83-11.16l-1.7-8.14c-3.35,8.14,1.73,18.45-2.11,19.83-1.17.42-2.85-.73-2.8-2.49l.72-25.6,7.9,4.67.58,10.37c3.83,2.07,4,5.12,3.6,9.52l-.21,2.34c-.09.96-1.28,1.07-2.16.67Z"/>
      <path class="cls-1" d="M73.15,510.79l.77,12.97c.11,1.85-.83,2.63-1.71,2.69-1.13.08-2.29-.64-2.33-2.2l-.67-27.65c-.77-2.62,3.1-2.64,2.55,0-1.17,5.61,1.11,9.57,1.39,14.2Z"/>
      <path class="cls-16" d="M67.18,510.11c-1.82.7-2.68.05-4.04-.54l.14,9.48c.01,1.01-1.28,1.31-1.88,1.08-1.01-.39-1.26-1.01-1.44-2.6l-2.42-21.25c.35,0,1.4-.24,1.65-.37l3.52,11.24c.59-3.06-.34-5.55,2.26-7.78l2.21,10.74Z"/>
      <path class="cls-30" d="M175.79,515.65l1.41-.16c2.22,4.79,2.87,10.4,2.02,15.67l-3.5-4.37c.05,3.23.33,4.96-1.65,6.78-3.45-3.59-4.15-10.57-2.61-15.24,1.13-.82,4.21-1.23,4.33-2.68Z"/>
      <rect class="cls-35" x="126.24" y="515.44" width="3.47" height="22.72" transform="translate(-2.07 .51) rotate(-.23)"/>
      <path class="cls-23" d="M15.09,466.68c.03,1.22-1.89,1.79-2.4,1.68-.86-.19-1.86-.99-1.87-2.78l-.04-17.04c0-.7,2.55-1.16,2.94-.62s.93,1.91.96,3.09l.4,15.68Z"/>
      <path class="cls-21" d="M149.89,528.28c-.02,1.73-4.81,1.93-5.03.12l-1.51-12.63c3.77-2.53,6.65,4.77,6.54,12.52Z"/>
      <path class="cls-10" d="M106.61,490.16c1.82.88,2.34,1.76.14,2.32-.22,3.4,1.14,9.31-1.98,13.49-2.29-6.31-2.52-14.65-.59-20.79,2.83-.15,3.18,3.02,2.42,4.98Z"/>
      <rect class="cls-33" x="83.23" y="513.47" width="3.96" height="17.98" transform="translate(-12.89 2.27) rotate(-1.42)"/>
      <rect class="cls-12" x="49.02" y="494.81" width="3.84" height="18.83" transform="translate(-62.63 10.32) rotate(-7.18)"/>
      <path class="cls-14" d="M75.05,485.53c.15,1.76-.67,2.21-.94,2.57-.63.84-2.53.49-2.55-.42l-.33-16.17c-.02-.81.44-1.83.93-2.01.4-.14,1.58.62,1.64,1.35l1.26,14.68Z"/>
      <path class="cls-24" d="M196.5,517.09c2.7,4.33,2.12,13.97,1.39,14.68-3.11,3.05-5.71-7.15-1.39-14.68Z"/>
      <path class="cls-3" d="M117.86,489.97c2.73.42,2.31,6.13-.41,6.43-3.64-1.09-7.54-1.85-10.7-3.92.03-.4-.44-1.57-.14-2.32,2.12.13,3.92,1.99,6.35,1.41,0-1.56.17-3.5.58-4.28.5-.96,3.66-.2,4.32,2.69Z"/>
      <path class="cls-21" d="M153.63,516.43c1.86,2.69,3.09,11.61.32,12.88-3.38-3.35-3.63-8.37-3.43-12.98.28-.85,2.6-.63,3.11.1Z"/>
      <rect class="cls-13" x="71.18" y="477.05" width="14.3" height="3.79" transform="translate(-401.89 549.09) rotate(-89.02)"/>
      <path class="cls-27" d="M121.29,489.27c2.78,0,2.78,1.41.13,2.29l-.14,3.22c-.13,2.87-.17,5.87-2.42,8.32-1.8-2.09-1.59-3.82-1.41-6.69l.41-6.43c.89-1.46,2.5-.5,3.43-.7Z"/>
      <path class="cls-22" d="M24.94,469.22c2.29-2.63,5.02,6.34,1.41,12.24-3.14-2.17-2.74-10.72-1.41-12.24Z"/>
      <path class="cls-4" d="M89.5,485.27c2.32,5,2.71,14.75,2,15.29-2.65,2.03-4.45-6.25-2-15.29Z"/>
      <path class="cls-3" d="M121.42,491.56l-.13-2.29c1.94-.41,5.45.08,5.72,3-2.24.72-4.6-.53-5.59-.71Z"/>
      <path class="cls-3" d="M189.56,513.14c.32-.43,2.04-.4,2.65-.24.49.13,1.18.86.68,1.78-.58,1.08-1.35.6-1.85.73-1.04.27-2.61-.75-1.49-2.28Z"/>
      <path class="cls-3" d="M189.55,504.67c1.01-1.19,3.33,1.17,3.17,1.58-.35.9-1.35.6-1.8.69-1,.19-2.56-.89-1.38-2.27Z"/>
      <path class="cls-3" d="M203.81,508.6c.58-2.29,2.57-.95,2.49-.01-.04.56-.02,1.38-.58,1.87-.43.38-2.44.22-1.91-1.86Z"/>
      <path class="cls-3" d="M191.67,509.21c1.52.17,1.07,1.79-.26,1.46-2.72.43-2.01-2.47.26-1.46Z"/>
    </g>
  </g>
  <path class="cls-6" d="M288.83,516.5c-.03,3.81,3.15,3.59,5.86,3.96,1.65,1.64,2.29,4.3,1.92,7.97,5.84.02,10.43,1.78,13.77,5.3,2.6-2.31,5.98-1.77,7.24,1.61,3.96-2.65,13.23-.79,15.89,3.42.42-.85,1.15-2.1,1.79-1.94,5.65,1.35,15.89,5.16,21.34,7.48,4.3.84,6.58,2.61,6.83,5.33,4.07-.51,17.34,3.05,18.96,6.19,1.07,2.06-.16,3.05-2.42,3.08-8-.41-16.01.47-24.7-.92-22.66-3.65-44.99-8.05-66.53-13.21,5.53-2.14-.49-5.16-.93-12.84-.11-1.86-2.38-2.39-3.07-1.65-1.04,1.11.16,5.73-1.55,6.86-4.37,2.87-1.94-10.76-6.17-7.91-1.31.88-.58,5.3.13,6.82-4.04.28-3.75-2.66-4.21-4.95l-.69-3.44c-.13-.63-1.1-1.32-3.11-.67-.29,2.33,1.68,5.89-1.57,8.64-.89-2.9-.57-7.94-3.78-8.86-2.23.54-2.22,6.52.51,8.51-1.21.98-4.34,2.43-5.45.94l-3.12-4.19c-4.44-4.04-5.8-8.36-4.08-12.95.99.23,1.86-.17,2.39-.45.62-2.09,1.58-3.82,2.88-5.19,7.36-.63,15.53,5.53,25.64,3.53-.03-2.12.98-4.17,2.64-3.47-1.06,2.36.15,4.15,1.24,4.15.64,0,1.65-.58,2.33-1.13Z"/>
  <path class="cls-5" d="M320.05,521.18c2.42.7,3.3,1.65,2.64,2.87,5.24,3.37,9.03,8.4,10.81,14.72l-14.25-2.83c.39,3.9,1.34,6.99.32,10.33-.27.86-3.35.38-3.48-1.09l-.86-9.86c-.09-1.04-3.23-.55-3.42.2-.66,2.63,2.7,8.81-.32,9.5-4.47,1.02-.92-9.31-4.8-11.78-1.41-.9-4.15-1.85-5.69-.32,2.15,4.34,4.98,8.22,3.99,13.17-3.9-2.44-6.64-11.9-6.09-12.53l2.08-2.42c-2.15.08-6,0-6.59-1.51-1.27-3.3-.14-6.65.27-9.15,10.49,1.46,18.21-.54,25.36.71Z"/>
  <g>
    <path class="cls-3" d="M222.28,504.32c1.46,1.1,2.57,1.21,3.34.32,7.24,1.92,14.04,5.16,21.58,6,1.56.5,2.46,1.85,2.69,4.05,3.01.37,4.41,1.68,4.22,3.93,1.01,3.3-.68,3.51-2.39.45-1.52,5.7-.71,10.21,4.08,12.95,2.51-1.53,3.69.33,4.67,2.55-1.72-5.89-.12-12.24,7-8.68,2.79-2.68,6.34-1.73,7.35,1.96,3.26-2.28,6.15-1.27,7.19,2.53,1.99-3.54,5.31-3.71,7.69-.39,1.49,2.07,6.66,18.36-.92,14.77-.41-.14-1.17-.5-1.76-.37l-4.43-1.15-5.96-.05-14.14-1.98-.41-1.53c-5.3-4.43-20.88-7.18-21.72-6.78-1.06.35-1.75.21-1.86-.71.78-4.72.19-7.54-1.77-8.46-1.88.91-1.32,3.65-1.73,6.25-2.52-5.18-.56-12.39-3.69-10.78-1.77.91-2.05,4.49-5.75,4.9-2.61.06-5.43.85-8.49,2.39-.14,1.4-1.79,2.4-3.22,3.26-1.48-7.22,5.48-11.4-1.27-17.6-.06,2.21-.44,3.63-1.08,4-.45.26-1.82.41-2.74-.12,1-2.61,1.93-6.85.13-9.25-1.55.09-4.22.17-4.87-.81-1.03-1.56-.17-4.74-2.02-4.73-1.27,0-1.28,3.58-3.54,3.34-1.39-.15-1.12-2.92-1.46-3.69-3.59-2.06-10.86.03-12.69,5.2-1.41-1.22-2.58.03-1.84.9,2.18-.31,2.36.63,2.82.98.64.49.53,1.6-.34,1.83-.95.25-1.83.16-2.83-.21l-13.48-5.06c-.83.38-.77,1.13-.18,2.08,4.42.82,8.53,2.95,13.72,3.39,1.67.14,3.55.87,3.32,3.45-9.89-1.85-18.83-4.73-28-7.39-.77-.12-.76.66.03,2.33l33.64,8.88c-.12.83.71,1.51.46,1.32-5.36,1.14-9.68-3.66-14.46-3.12.48,2.31-.46,2.41-1.41.16l-15.06-4.53-26.8-6.93c-1.02-.26-2.46-2.06-3.29-2.08-1.51-.04-1.37,2.98-1.85,3.7-2.83,2.38-7.86-.33-9.92-2.72-.6-3.85.2-6.62,2.42-8.32,1.69-.06,3.38.17,5.08.5,1.57,1.74,3.01,1.77,4.33.07l.84-2.87c2.5.72,4.95,1.79,8.37.67-7.21-5.53-17.9-5.42-26.07-10.28,6.08-.81,10.34,2.78,15.31,3.29.5-.15.91-.6.99-.97l-21.38-8.14c-3.83-1.46-7.55-2.57-10.25-5.38,5.5,1.06,8.35,3.7,12.4,3.88l.82-.91-11.53-4.9c-1.48-.63-2.06-1.82-2.03-2.94l12.64,4.63c11.67,4.27,23.33,10.19,35.41,12.56.76-.36,1.98-2.46,2.65-2.7.44-.15,1.43.34,1.45.84l.12,2.9c.06,1.47,2.27,1.41,2.57.59.23-.61-.51-2.02,1.13-3.55,1.67,1.32,1.78,3.34,2.48,5.2l22.8,6.35c.48-2.51.27-4.21,1.62-6.3,2.31,2.21,1.7,4.96,2.69,7.43.41-1.6,1.55-4.97,2.66-4.53,2.25.89,1.19,4.2,1.03,5.78,2.15-.48,4.25-3.08,4.62-2.43l1.99,3.47,28.25,7.27Z"/>
    <g>
      <path class="cls-28" d="M157.53,506.08l.03,2.33c-2.53-.67-3.27-1.08-5.05-3.84-1.25-1.94-4.36-2.42-4.53-4.44-.23-2.67-.16-6.55,2.28-6.81.8-.04,1.61,3.33,2.34,3.32l4.29-.07c1.58,3.09.58,6.78.65,9.5Z"/>
      <path class="cls-7" d="M225.57,524.12l-.24,9.08c-4.12,1.67-1.65-3.47-8.24-6.69l.47-4.87c1.28-.72,2.76,1.44,2.6,2.42,1.36-1.76,1.44-2.72,1.81-3.5.5-1.06,2.29-1.14,2.95-.24.59.81.68,2.67.65,3.79Z"/>
      <path class="cls-26" d="M168.66,504.56l-.18,2.08-2.38-.44c-1.28-.24-1.94-9.13-.61-13.18.39-1.2,4.02-.67,3.92.75l-.75,10.79Z"/>
      <path class="cls-19" d="M240.37,532.92c-.92.43-3.73,1.24-3.71-.49l.08-8.68c.01-1.3.89-1.48,1.71-1.36,1.42.2,1.78,1.07,1.81,2.61l.11,7.92Z"/>
      <path class="cls-9" d="M130.69,495.35c.24,1.36.29,3.9-.26,5.04-.44.87-3.24.01-3.6-.9-.45-1.15-.9-2.65-.47-4.21.47-1.73.65-3.18,2.3-4.91,1.28,1.77,1.73,3.32,2.03,4.98Z"/>
      <path class="cls-15" d="M225.62,504.64c-.13,3.58,1.55,7.8-1.58,11.97-3.02-4.17-1.16-8.45-1.76-12.29l3.34.32Z"/>
      <path class="cls-6" d="M287.04,544.41c-1.57.35-3.43.22-4.43-1.15,1.54.01,3.71-.63,4.43,1.15Z"/>
      <path class="cls-34" d="M140.29,499.26c-1.19.78-.85,2.24-.74,3.18.07.65-2.54.79-2.72-.38-.34-2.16.07-3.96.4-5.64,1.25.33,2.17.39,2.72.18.74-.29,1.33-3.06,2.13-3.67,3.02.19,4.26,4.21,3.4,7.9-.34,1.46-.08,3.04-2.03,3.08-1.22.02-2.77-.37-3.17-4.65Z"/>
      <path class="cls-8" d="M251.72,519.07c.67,2.21.4,4.99,2.21,6.76l2.64,2.58c.79.77-.09,2.7-.76,3.62-.79.13-3.23.66-4.61-.05-3.02-3.31-3.03-10.59.53-12.9Z"/>
    </g>
  </g>
  <path class="cls-31" d="M62.93,532.56c2.37,1.02,2.42,1.94.26,3.15-1.57.88-10.91-2.47-11.43-4.44-.04-.15-1.49,2.56-1.33,2.55,2.48-.22,2.5-.08,2.34,2.91,11.79,3.88,9.06,12.94-2.72,5.6l-1.98,2.39,26.53,9.24.62,2.84-1.22,2.36c-22.8-1.77-45.87-2.36-69.24-1.79L0,555.48v-46.1c21.75,5.49,42.59,13.94,62.93,23.18Z"/>
  <g>
    <path class="cls-18" d="M61.18,532.53l6.51,1.97c8.37,2.53,16.25,7.66,25.18,8.59l8.8.91c-1.78-.46-3.52,1.34-1.13,1.92,13.4,4.03,25.85,6.15,39.47,8.72-3.56,3.25-7.42,1.58-10.59,1.65l-27.8.65c-4.47.1-7.94.16-12.49.07l-15.54-.3-10.57-4.06c-7.12-2.52-14.04-3.4-21.52-7.48l5.59-3.87-5.91-2.43c6.85-1.53,9.79,3.42,16.29,4.57-3.6-3.78-8.8-4.71-13.34-6.98,1.63-.27,3.42,1.16,5.51-.69l-13.82-6.23c.4-.37.78-.84.7-.75l13.13,3.87-16.83-9.39,27.97,10.54c.53-.23.77-1.2.43-1.28Z"/>
    <path class="cls-31" d="M76.5,554.41l-22.05-5.83c1.75-3.82,4.86-1.45,7.12-.67l15.03,5.2c.92.48.23,1.19-.1,1.3Z"/>
  </g>
</svg>